<?xml version="1.0" encoding="utf-8"?>
<!-- Generator: Adobe Illustrator 18.1.0, SVG Export Plug-In . SVG Version: 6.00 Build 0)  -->
<svg version="1.1" id="Layer_1" xmlns="http://www.w3.org/2000/svg" xmlns:xlink="http://www.w3.org/1999/xlink" x="0px" y="0px"
	 viewBox="-95 234 420 325" enable-background="new -95 234 420 325" xml:space="preserve">
<g id="WEB_DESIGN">
</g>
<g id="APP_DESIGN">
</g>
<g id="WORDPRESS">
</g>
<path fill="#3E253C" d="M-60,505c0,1.1,0.9,2,2,2h46V328h-48V505z"/>
<path fill="#3E253C" d="M288,507c1.1,0,2-0.9,2-2V328h-49v179H288z"/>
<path fill="#3E253C" d="M237,328"/>
<path fill="#FFFFFF" d="M113,504.2l0.2-45.7c0,0-12.1,0.5-23.7-13c-1.2-1.4-11.8,2.3-16-0.3c-2.1-1.3-13.4-15.1-19.7-13
	C19.2,443.5-58,511-58,511c-3.3,0-6-2.7-6-6V291c0-3.3,1.7,6,5,6l171.7-8l0.3-55H-95v325h208"/>
<path fill="#3E253C" d="M-58,289c-1.1,0-2,0.9-2,2v9"/>
<path fill="#FFFFFF" d="M117,289.7l28.7,0c0,0,8,4.5,8,14.5c0,4.6,0,26.2,0,39.5c0,6.1,1.5-5.7,8.1-4.9c2.2,0.3,8.3-1.3,8.2,2.3
	c0,2.2,1.5,21.4,1.5,21.4s7.7,27.4,9.8,30.1c0.6,0.7,1.3,21.5-0.4,36.6c-0.4,3.6-10.8,10.1-11.6,11.7c0,0,0.5,70.6,0.5,72.8L294,505
	c0,3.3-2.7,0.4-6,0.4l-171-2.1V559h208V234H117"/>
<path fill="#3E253C" d="M290,300v-9c0-1.1-0.9-2-2-2"/>
<path fill="#3E253C" d="M-52,297c-1.1,0-2-0.9-2-2s0.9-2,2-2s2,0.9,2,2S-50.9,297-52,297z"/>
<path fill="#3E253C" d="M-44,297c-1.1,0-2-0.9-2-2s0.9-2,2-2s2,0.9,2,2S-42.9,297-44,297z"/>
<path fill="#3E253C" d="M-36,297c-1.1,0-2-0.9-2-2s0.9-2,2-2s2,0.9,2,2S-34.9,297-36,297z"/>
<path fill="#FFFFFF" d="M36,527H-73V273l179.3,5.7c0,0-39.5,6.7-39.5,20.7c0,4.8-1.5,14.6,0.6,18.3c2.7,4.9-7-2.7-7.8-3
	c-5.9-2.3-7.8,0.9-9.7,2.1c-3.2,1.9-1.1,10.2,1.3,11.8c5.7,3.9,10.1,7.1,11.2,7.6c5.6,2.5,5.1,4.9,4.2,5.7c-0.5,0.4-1.3-0.1-2-0.3
	c-1-0.4-3-0.7-3.8-0.4c-1.7,0.6-5.8,3.7-6.1,5.7c-0.8,4-0.5,5.9,1.9,8.4c2.2,2.3,6.1,3.8,9.7,4.9c0.3,0.1,1.4,3.4,1.2,3.3
	c-5.8-3.3-9.8-0.6-11.3,0.4c-2.8,1.9-2.9,5.9-2.7,7.7c0.3,3,2.4,5.9,7,7.4c7.4,2.5,6.9,3.5,6.9,3.5c-7-3-9-1-9.8-0.4
	c-7.7,5.8-2.8,13.7-1.3,14.1c7.5,2.3,11,4.9,11,4.9v30.9l-6.6,65.5L36,527z"/>
<polygon fill="#FFFFFF" points="304,527 187,527 179.7,319.8 187,267 304,267 "/>
<g>
	<g>
		<defs>
			<path id="SVGID_1_" d="M141.7,446.8H78.2c-6.6,0-12-5.4-12-12V301c0-6.6,5.4-12,12-12h63.5c6.6,0,12,5.4,12,12v133.8
				C153.7,441.4,148.3,446.8,141.7,446.8z"/>
		</defs>
		<clipPath id="SVGID_2_">
			<use xlink:href="#SVGID_1_"  overflow="visible"/>
		</clipPath>
		<g clip-path="url(#SVGID_2_)">
			<defs>
				<rect id="SVGID_3_" x="29.4" y="268.3" width="185.2" height="201.7"/>
			</defs>
			<clipPath id="SVGID_4_">
				<use xlink:href="#SVGID_3_"  overflow="visible"/>
			</clipPath>
			<path clip-path="url(#SVGID_4_)" fill="#FFFFFF" d="M306.4,519.7H-86.5v-304h392.9V519.7z M68.5,300.1v136.1
				c0,4.9,3.7,7.8,8.6,7.8h66.4c4.9,0,7.9-2.9,7.9-7.8V300.1c0-4.9-3.1-8.9-7.9-8.9H77C72.2,291.2,68.5,295.2,68.5,300.1z
				 M120,296.7c0.3,0,0.5,0.2,0.5,0.5s-0.2,0.5-0.5,0.5c-0.3,0-0.5-0.2-0.5-0.5C119.5,296.9,119.7,296.7,120,296.7z M117.6,300.9
				c0,0.3,0.2,0.5,0.5,0.5s0.5-0.2,0.5-0.5c0-0.3-0.2-0.5-0.5-0.5S117.6,300.6,117.6,300.9z M117.6,299.1c0,0.3,0.2,0.5,0.5,0.5
				s0.5-0.2,0.5-0.5c0-0.3-0.2-0.5-0.5-0.5S117.6,298.8,117.6,299.1z M115.8,300.9c0,0.3,0.2,0.5,0.5,0.5c0.3,0,0.5-0.2,0.5-0.5
				c0-0.3-0.2-0.5-0.5-0.5C116,300.4,115.8,300.6,115.8,300.9z M117.6,297.2c0,0.3,0.2,0.5,0.5,0.5s0.5-0.2,0.5-0.5
				c0-0.3-0.2-0.5-0.5-0.5S117.6,296.9,117.6,297.2z M121.3,297.2c0,0.3,0.2,0.5,0.5,0.5s0.5-0.2,0.5-0.5c0-0.3-0.2-0.5-0.5-0.5
				S121.3,296.9,121.3,297.2z M121.3,299.1c0,0.3,0.2,0.5,0.5,0.5s0.5-0.2,0.5-0.5c0-0.3-0.2-0.5-0.5-0.5S121.3,298.8,121.3,299.1z
				 M119.5,300.9c0,0.3,0.2,0.5,0.5,0.5c0.3,0,0.5-0.2,0.5-0.5c0-0.3-0.2-0.5-0.5-0.5C119.7,300.4,119.5,300.6,119.5,300.9z
				 M119.5,299.1c0,0.3,0.2,0.5,0.5,0.5c0.3,0,0.5-0.2,0.5-0.5c0-0.3-0.2-0.5-0.5-0.5C119.7,298.6,119.5,298.8,119.5,299.1z
				 M113.9,299.1c0,0.3,0.2,0.5,0.5,0.5s0.5-0.2,0.5-0.5c0-0.3-0.2-0.5-0.5-0.5C114.1,298.6,113.9,298.8,113.9,299.1z M112,297.2
				c0,0.3,0.2,0.5,0.5,0.5c0.3,0,0.5-0.2,0.5-0.5c0-0.3-0.2-0.5-0.5-0.5C112.3,296.7,112,296.9,112,297.2z M112,299.1
				c0,0.3,0.2,0.5,0.5,0.5c0.3,0,0.5-0.2,0.5-0.5c0-0.3-0.2-0.5-0.5-0.5C112.3,298.6,112,298.8,112,299.1z M110.2,300.9
				c0,0.3,0.2,0.5,0.5,0.5s0.5-0.2,0.5-0.5c0-0.3-0.2-0.5-0.5-0.5C110.4,300.4,110.1,300.6,110.2,300.9z M115.8,299.1
				c0,0.3,0.2,0.5,0.5,0.5c0.3,0,0.5-0.2,0.5-0.5c0-0.3-0.2-0.5-0.5-0.5C116,298.6,115.8,298.8,115.8,299.1z M112,300.9
				c0,0.3,0.2,0.5,0.5,0.5c0.3,0,0.5-0.2,0.5-0.5c0-0.3-0.2-0.5-0.5-0.5C112.3,300.4,112,300.6,112,300.9z M115.8,297.2
				c0,0.3,0.2,0.5,0.5,0.5c0.3,0,0.5-0.2,0.5-0.5c0-0.3-0.2-0.5-0.5-0.5C116,296.7,115.8,296.9,115.8,297.2z M113.9,300.9
				c0,0.3,0.2,0.5,0.5,0.5s0.5-0.2,0.5-0.5c0-0.3-0.2-0.5-0.5-0.5C114.1,300.4,113.9,300.6,113.9,300.9z M121.3,300.9
				c0,0.3,0.2,0.5,0.5,0.5s0.5-0.2,0.5-0.5c0-0.3-0.2-0.5-0.5-0.5S121.3,300.6,121.3,300.9z M113.9,297.2c0,0.3,0.2,0.5,0.5,0.5
				s0.5-0.2,0.5-0.5c0-0.3-0.2-0.5-0.5-0.5C114.1,296.7,113.9,296.9,113.9,297.2z M132.6,300.9c0,0.3,0.2,0.5,0.5,0.5
				s0.5-0.2,0.5-0.5c0-0.3-0.2-0.5-0.5-0.5S132.5,300.6,132.6,300.9z M130.7,299.1c0,0.3,0.2,0.5,0.5,0.5s0.5-0.2,0.5-0.5
				c0-0.3-0.2-0.5-0.5-0.5C130.9,298.6,130.6,298.8,130.7,299.1z M130.7,297.2c0,0.3,0.2,0.5,0.5,0.5s0.5-0.2,0.5-0.5
				c0-0.3-0.2-0.5-0.5-0.5C130.9,296.7,130.6,296.9,130.7,297.2z M130.7,300.9c0,0.3,0.2,0.5,0.5,0.5s0.5-0.2,0.5-0.5
				c0-0.3-0.2-0.5-0.5-0.5C130.9,300.4,130.6,300.6,130.7,300.9z M128.9,300.9c0,0.3,0.2,0.5,0.5,0.5s0.5-0.2,0.5-0.5
				c0-0.3-0.2-0.5-0.5-0.5S128.8,300.6,128.9,300.9z M123.2,297.2c0,0.3,0.2,0.5,0.5,0.5c0.3,0,0.5-0.2,0.5-0.5
				c0-0.3-0.2-0.5-0.5-0.5C123.4,296.7,123.2,296.9,123.2,297.2z M110.2,299.1c0,0.3,0.2,0.5,0.5,0.5s0.5-0.2,0.5-0.5
				c0-0.3-0.2-0.5-0.5-0.5C110.4,298.6,110.1,298.8,110.2,299.1z M128.9,299.1c0,0.3,0.2,0.5,0.5,0.5s0.5-0.2,0.5-0.5
				c0-0.3-0.2-0.5-0.5-0.5S128.8,298.8,128.9,299.1z M132.6,299.1c0,0.3,0.2,0.5,0.5,0.5s0.5-0.2,0.5-0.5c0-0.3-0.2-0.5-0.5-0.5
				S132.5,298.8,132.6,299.1z M132.6,297.2c0,0.3,0.2,0.5,0.5,0.5s0.5-0.2,0.5-0.5c0-0.3-0.2-0.5-0.5-0.5S132.5,296.9,132.6,297.2z
				 M86.9,297.2c0-0.3-0.2-0.5-0.5-0.5s-0.5,0.2-0.5,0.5c0,0.3,0.2,0.5,0.5,0.5S86.9,297.5,86.9,297.2z M123.2,300.9
				c0,0.3,0.2,0.5,0.5,0.5c0.3,0,0.5-0.2,0.5-0.5c0-0.3-0.2-0.5-0.5-0.5C123.4,300.4,123.2,300.6,123.2,300.9z M125.1,297.2
				c0,0.3,0.2,0.5,0.5,0.5s0.5-0.2,0.5-0.5c0-0.3-0.2-0.5-0.5-0.5S125.1,296.9,125.1,297.2z M123.2,299.1c0,0.3,0.2,0.5,0.5,0.5
				c0.3,0,0.5-0.2,0.5-0.5c0-0.3-0.2-0.5-0.5-0.5C123.4,298.6,123.2,298.8,123.2,299.1z M125.1,300.9c0,0.3,0.2,0.5,0.5,0.5
				s0.5-0.2,0.5-0.5c0-0.3-0.2-0.5-0.5-0.5S125.1,300.6,125.1,300.9z M128.9,297.2c0,0.3,0.2,0.5,0.5,0.5s0.5-0.2,0.5-0.5
				c0-0.3-0.2-0.5-0.5-0.5S128.8,296.9,128.9,297.2z M126.9,297.2c0,0.3,0.2,0.5,0.5,0.5c0.3,0,0.5-0.2,0.5-0.5
				c0-0.3-0.2-0.5-0.5-0.5C127.1,296.7,126.9,296.9,126.9,297.2z M126.9,300.9c0,0.3,0.2,0.5,0.5,0.5c0.3,0,0.5-0.2,0.5-0.5
				c0-0.3-0.2-0.5-0.5-0.5C127.1,300.4,126.9,300.6,126.9,300.9z M126.9,299.1c0,0.3,0.2,0.5,0.5,0.5c0.3,0,0.5-0.2,0.5-0.5
				c0-0.3-0.2-0.5-0.5-0.5C127.1,298.6,126.9,298.8,126.9,299.1z M125.1,299.1c0,0.3,0.2,0.5,0.5,0.5s0.5-0.2,0.5-0.5
				c0-0.3-0.2-0.5-0.5-0.5S125.1,298.8,125.1,299.1z M93.4,299.1c0,0.3,0.2,0.5,0.5,0.5c0.3,0,0.5-0.2,0.5-0.5
				c0-0.3-0.2-0.5-0.5-0.5C93.6,298.6,93.4,298.8,93.4,299.1z M93.4,300.9c0,0.3,0.2,0.5,0.5,0.5c0.3,0,0.5-0.2,0.5-0.5
				c0-0.3-0.2-0.5-0.5-0.5C93.6,300.4,93.4,300.6,93.4,300.9z M93.4,297.2c0,0.3,0.2,0.5,0.5,0.5c0.3,0,0.5-0.2,0.5-0.5
				c0-0.3-0.2-0.5-0.5-0.5C93.6,296.7,93.4,296.9,93.4,297.2z M91.5,300.9c0,0.3,0.2,0.5,0.5,0.5s0.5-0.2,0.5-0.5
				c0-0.3-0.2-0.5-0.5-0.5S91.4,300.6,91.5,300.9z M95.2,299.1c0,0.3,0.2,0.5,0.5,0.5s0.5-0.2,0.5-0.5c0-0.3-0.2-0.5-0.5-0.5
				S95.2,298.8,95.2,299.1z M95.2,297.2c0,0.3,0.2,0.5,0.5,0.5s0.5-0.2,0.5-0.5c0-0.3-0.2-0.5-0.5-0.5S95.2,296.9,95.2,297.2z
				 M95.2,300.9c0,0.3,0.2,0.5,0.5,0.5s0.5-0.2,0.5-0.5c0-0.3-0.2-0.5-0.5-0.5S95.2,300.6,95.2,300.9z M97.1,297.2
				c0,0.3,0.2,0.5,0.5,0.5c0.3,0,0.5-0.2,0.5-0.5c0-0.3-0.2-0.5-0.5-0.5C97.3,296.7,97.1,296.9,97.1,297.2z M91.5,299.1
				c0,0.3,0.2,0.5,0.5,0.5s0.5-0.2,0.5-0.5c0-0.3-0.2-0.5-0.5-0.5S91.4,298.8,91.5,299.1z M85.8,300.9c0,0.3,0.2,0.5,0.5,0.5
				s0.5-0.2,0.5-0.5c0-0.3-0.2-0.5-0.5-0.5C86.1,300.4,85.8,300.6,85.8,300.9z M87.7,297.2c0,0.3,0.2,0.5,0.5,0.5
				c0.3,0,0.5-0.2,0.5-0.5c0-0.3-0.2-0.5-0.5-0.5C88,296.7,87.7,296.9,87.7,297.2z M87.7,299.1c0,0.3,0.2,0.5,0.5,0.5
				c0.3,0,0.5-0.2,0.5-0.5c0-0.3-0.2-0.5-0.5-0.5C88,298.6,87.7,298.8,87.7,299.1z M97.1,299.1c0,0.3,0.2,0.5,0.5,0.5
				c0.3,0,0.5-0.2,0.5-0.5c0-0.3-0.2-0.5-0.5-0.5C97.3,298.6,97.1,298.8,97.1,299.1z M110.2,297.2c0,0.3,0.2,0.5,0.5,0.5
				s0.5-0.2,0.5-0.5c0-0.3-0.2-0.5-0.5-0.5C110.4,296.7,110.1,296.9,110.2,297.2z M85.8,299.1c0,0.3,0.2,0.5,0.5,0.5
				s0.5-0.2,0.5-0.5c0-0.3-0.2-0.5-0.5-0.5C86.1,298.6,85.8,298.8,85.8,299.1z M89.6,299.1c0,0.3,0.2,0.5,0.5,0.5
				c0.3,0,0.5-0.2,0.5-0.5c0-0.3-0.2-0.5-0.5-0.5C89.9,298.6,89.6,298.8,89.6,299.1z M89.6,300.9c0,0.3,0.2,0.5,0.5,0.5
				c0.3,0,0.5-0.2,0.5-0.5c0-0.3-0.2-0.5-0.5-0.5C89.9,300.4,89.6,300.6,89.6,300.9z M87.7,300.9c0,0.3,0.2,0.5,0.5,0.5
				c0.3,0,0.5-0.2,0.5-0.5c0-0.3-0.2-0.5-0.5-0.5C88,300.4,87.7,300.6,87.7,300.9z M89.6,297.2c0,0.3,0.2,0.5,0.5,0.5
				c0.3,0,0.5-0.2,0.5-0.5c0-0.3-0.2-0.5-0.5-0.5C89.9,296.7,89.6,296.9,89.6,297.2z M91.5,297.2c0,0.3,0.2,0.5,0.5,0.5
				s0.5-0.2,0.5-0.5c0-0.3-0.2-0.5-0.5-0.5S91.4,296.9,91.5,297.2z M106.4,299.1c0,0.3,0.2,0.5,0.5,0.5c0.3,0,0.5-0.2,0.5-0.5
				c0-0.3-0.2-0.5-0.5-0.5C106.6,298.6,106.4,298.8,106.4,299.1z M106.4,297.2c0,0.3,0.2,0.5,0.5,0.5c0.3,0,0.5-0.2,0.5-0.5
				c0-0.3-0.2-0.5-0.5-0.5C106.6,296.7,106.4,296.9,106.4,297.2z M104.5,300.9c0,0.3,0.2,0.5,0.5,0.5c0.3,0,0.5-0.2,0.5-0.5
				c0-0.3-0.2-0.5-0.5-0.5C104.7,300.4,104.5,300.6,104.5,300.9z M104.5,299.1c0,0.3,0.2,0.5,0.5,0.5c0.3,0,0.5-0.2,0.5-0.5
				c0-0.3-0.2-0.5-0.5-0.5C104.7,298.6,104.5,298.8,104.5,299.1z M108.3,299.1c0,0.3,0.2,0.5,0.5,0.5c0.3,0,0.5-0.2,0.5-0.5
				c0-0.3-0.2-0.5-0.5-0.5C108.5,298.6,108.2,298.8,108.3,299.1z M104.5,297.2c0,0.3,0.2,0.5,0.5,0.5c0.3,0,0.5-0.2,0.5-0.5
				c0-0.3-0.2-0.5-0.5-0.5C104.7,296.7,104.5,296.9,104.5,297.2z M106.4,300.9c0,0.3,0.2,0.5,0.5,0.5c0.3,0,0.5-0.2,0.5-0.5
				c0-0.3-0.2-0.5-0.5-0.5C106.6,300.4,106.4,300.6,106.4,300.9z M108.3,300.9c0,0.3,0.2,0.5,0.5,0.5c0.3,0,0.5-0.2,0.5-0.5
				c0-0.3-0.2-0.5-0.5-0.5C108.5,300.4,108.2,300.6,108.3,300.9z M108.3,297.2c0,0.3,0.2,0.5,0.5,0.5c0.3,0,0.5-0.2,0.5-0.5
				c0-0.3-0.2-0.5-0.5-0.5C108.5,296.7,108.2,296.9,108.3,297.2z M100.8,299.1c0,0.3,0.2,0.5,0.5,0.5c0.3,0,0.5-0.2,0.5-0.5
				c0-0.3-0.2-0.5-0.5-0.5C101,298.6,100.8,298.8,100.8,299.1z M102.7,300.9c0,0.3,0.2,0.5,0.5,0.5c0.3,0,0.5-0.2,0.5-0.5
				c0-0.3-0.2-0.5-0.5-0.5C102.9,300.4,102.7,300.6,102.7,300.9z M98.9,299.1c0,0.3,0.2,0.5,0.5,0.5s0.5-0.2,0.5-0.5
				c0-0.3-0.2-0.5-0.5-0.5S98.9,298.8,98.9,299.1z M100.8,297.2c0,0.3,0.2,0.5,0.5,0.5c0.3,0,0.5-0.2,0.5-0.5c0-0.3-0.2-0.5-0.5-0.5
				C101,296.7,100.8,296.9,100.8,297.2z M98.9,297.2c0,0.3,0.2,0.5,0.5,0.5s0.5-0.2,0.5-0.5c0-0.3-0.2-0.5-0.5-0.5
				S98.9,296.9,98.9,297.2z M98.9,300.9c0,0.3,0.2,0.5,0.5,0.5s0.5-0.2,0.5-0.5c0-0.3-0.2-0.5-0.5-0.5S98.9,300.6,98.9,300.9z
				 M102.7,299.1c0,0.3,0.2,0.5,0.5,0.5c0.3,0,0.5-0.2,0.5-0.5c0-0.3-0.2-0.5-0.5-0.5C102.9,298.6,102.7,298.8,102.7,299.1z
				 M102.7,297.2c0,0.3,0.2,0.5,0.5,0.5c0.3,0,0.5-0.2,0.5-0.5c0-0.3-0.2-0.5-0.5-0.5C102.9,296.7,102.7,296.9,102.7,297.2z
				 M97.1,300.9c0,0.3,0.2,0.5,0.5,0.5c0.3,0,0.5-0.2,0.5-0.5c0-0.3-0.2-0.5-0.5-0.5C97.3,300.4,97.1,300.6,97.1,300.9z
				 M100.8,300.9c0,0.3,0.2,0.5,0.5,0.5c0.3,0,0.5-0.2,0.5-0.5c0-0.3-0.2-0.5-0.5-0.5C101,300.4,100.8,300.6,100.8,300.9z
				 M133,435.7c0.3,0,0.5,0.2,0.5,0.5s-0.2,0.5-0.5,0.5c-0.3,0-0.5-0.2-0.5-0.5S132.8,435.7,133,435.7z M132.6,438
				c0,0.3,0.2,0.5,0.5,0.5s0.5-0.2,0.5-0.5c0-0.3-0.2-0.5-0.5-0.5S132.5,437.8,132.6,438z M132.6,439.9c0,0.3,0.2,0.5,0.5,0.5
				s0.5-0.2,0.5-0.5c0-0.3-0.2-0.5-0.5-0.5S132.5,439.6,132.6,439.9z M130.7,436.2c0,0.3,0.2,0.5,0.5,0.5s0.5-0.2,0.5-0.5
				c0-0.3-0.2-0.5-0.5-0.5C130.9,435.7,130.6,435.9,130.7,436.2z M130.7,438c0,0.3,0.2,0.5,0.5,0.5s0.5-0.2,0.5-0.5
				c0-0.3-0.2-0.5-0.5-0.5C130.9,437.5,130.6,437.8,130.7,438z M130.7,439.9c0,0.3,0.2,0.5,0.5,0.5s0.5-0.2,0.5-0.5
				c0-0.3-0.2-0.5-0.5-0.5C130.9,439.4,130.6,439.6,130.7,439.9z M128.9,436.2c0,0.3,0.2,0.5,0.5,0.5s0.5-0.2,0.5-0.5
				c0-0.3-0.2-0.5-0.5-0.5S128.8,435.9,128.9,436.2z M128.9,438c0,0.3,0.2,0.5,0.5,0.5s0.5-0.2,0.5-0.5c0-0.3-0.2-0.5-0.5-0.5
				S128.8,437.8,128.9,438z M128.9,439.9c0,0.3,0.2,0.5,0.5,0.5s0.5-0.2,0.5-0.5c0-0.3-0.2-0.5-0.5-0.5S128.8,439.6,128.9,439.9z
				 M126.9,436.2c0,0.3,0.2,0.5,0.5,0.5c0.3,0,0.5-0.2,0.5-0.5c0-0.3-0.2-0.5-0.5-0.5C127.1,435.7,126.9,435.9,126.9,436.2z
				 M126.9,438c0,0.3,0.2,0.5,0.5,0.5c0.3,0,0.5-0.2,0.5-0.5c0-0.3-0.2-0.5-0.5-0.5C127.1,437.5,126.9,437.8,126.9,438z
				 M126.9,439.9c0,0.3,0.2,0.5,0.5,0.5c0.3,0,0.5-0.2,0.5-0.5c0-0.3-0.2-0.5-0.5-0.5C127.1,439.4,126.9,439.6,126.9,439.9z
				 M125.1,436.2c0,0.3,0.2,0.5,0.5,0.5s0.5-0.2,0.5-0.5c0-0.3-0.2-0.5-0.5-0.5S125.1,435.9,125.1,436.2z M125.1,438
				c0,0.3,0.2,0.5,0.5,0.5s0.5-0.2,0.5-0.5c0-0.3-0.2-0.5-0.5-0.5S125.1,437.8,125.1,438z M125.1,439.9c0,0.3,0.2,0.5,0.5,0.5
				s0.5-0.2,0.5-0.5c0-0.3-0.2-0.5-0.5-0.5S125.1,439.6,125.1,439.9z M123.2,436.2c0,0.3,0.2,0.5,0.5,0.5c0.3,0,0.5-0.2,0.5-0.5
				c0-0.3-0.2-0.5-0.5-0.5C123.4,435.7,123.2,435.9,123.2,436.2z M123.2,438c0,0.3,0.2,0.5,0.5,0.5c0.3,0,0.5-0.2,0.5-0.5
				c0-0.3-0.2-0.5-0.5-0.5C123.4,437.5,123.2,437.8,123.2,438z M123.2,439.9c0,0.3,0.2,0.5,0.5,0.5c0.3,0,0.5-0.2,0.5-0.5
				c0-0.3-0.2-0.5-0.5-0.5C123.4,439.4,123.2,439.6,123.2,439.9z M121.3,436.2c0,0.3,0.2,0.5,0.5,0.5s0.5-0.2,0.5-0.5
				c0-0.3-0.2-0.5-0.5-0.5S121.3,435.9,121.3,436.2z M121.3,438c0,0.3,0.2,0.5,0.5,0.5s0.5-0.2,0.5-0.5c0-0.3-0.2-0.5-0.5-0.5
				S121.3,437.8,121.3,438z M121.3,439.9c0,0.3,0.2,0.5,0.5,0.5s0.5-0.2,0.5-0.5c0-0.3-0.2-0.5-0.5-0.5S121.3,439.6,121.3,439.9z
				 M119.5,436.2c0,0.3,0.2,0.5,0.5,0.5c0.3,0,0.5-0.2,0.5-0.5c0-0.3-0.2-0.5-0.5-0.5C119.7,435.7,119.5,435.9,119.5,436.2z
				 M119.5,438c0,0.3,0.2,0.5,0.5,0.5c0.3,0,0.5-0.2,0.5-0.5c0-0.3-0.2-0.5-0.5-0.5C119.7,437.5,119.5,437.8,119.5,438z
				 M119.5,439.9c0,0.3,0.2,0.5,0.5,0.5c0.3,0,0.5-0.2,0.5-0.5c0-0.3-0.2-0.5-0.5-0.5C119.7,439.4,119.5,439.6,119.5,439.9z
				 M117.6,436.2c0,0.3,0.2,0.5,0.5,0.5s0.5-0.2,0.5-0.5c0-0.3-0.2-0.5-0.5-0.5S117.6,435.9,117.6,436.2z M117.6,438
				c0,0.3,0.2,0.5,0.5,0.5s0.5-0.2,0.5-0.5c0-0.3-0.2-0.5-0.5-0.5S117.6,437.8,117.6,438z M117.6,439.9c0,0.3,0.2,0.5,0.5,0.5
				s0.5-0.2,0.5-0.5c0-0.3-0.2-0.5-0.5-0.5S117.6,439.6,117.6,439.9z M115.8,436.2c0,0.3,0.2,0.5,0.5,0.5c0.3,0,0.5-0.2,0.5-0.5
				c0-0.3-0.2-0.5-0.5-0.5C116,435.7,115.8,435.9,115.8,436.2z M115.8,438c0,0.3,0.2,0.5,0.5,0.5c0.3,0,0.5-0.2,0.5-0.5
				c0-0.3-0.2-0.5-0.5-0.5C116,437.5,115.8,437.8,115.8,438z M115.8,439.9c0,0.3,0.2,0.5,0.5,0.5c0.3,0,0.5-0.2,0.5-0.5
				c0-0.3-0.2-0.5-0.5-0.5C116,439.4,115.8,439.6,115.8,439.9z M113.9,436.2c0,0.3,0.2,0.5,0.5,0.5s0.5-0.2,0.5-0.5
				c0-0.3-0.2-0.5-0.5-0.5C114.1,435.7,113.9,435.9,113.9,436.2z M113.9,438c0,0.3,0.2,0.5,0.5,0.5s0.5-0.2,0.5-0.5
				c0-0.3-0.2-0.5-0.5-0.5C114.1,437.5,113.9,437.8,113.9,438z M113.9,439.9c0,0.3,0.2,0.5,0.5,0.5s0.5-0.2,0.5-0.5
				c0-0.3-0.2-0.5-0.5-0.5C114.1,439.4,113.9,439.6,113.9,439.9z M112,436.2c0,0.3,0.2,0.5,0.5,0.5c0.3,0,0.5-0.2,0.5-0.5
				c0-0.3-0.2-0.5-0.5-0.5C112.3,435.7,112,435.9,112,436.2z M112,438c0,0.3,0.2,0.5,0.5,0.5c0.3,0,0.5-0.2,0.5-0.5
				c0-0.3-0.2-0.5-0.5-0.5C112.3,437.5,112,437.8,112,438z M112,439.9c0,0.3,0.2,0.5,0.5,0.5c0.3,0,0.5-0.2,0.5-0.5
				c0-0.3-0.2-0.5-0.5-0.5C112.3,439.4,112,439.6,112,439.9z M110.2,436.2c0,0.3,0.2,0.5,0.5,0.5s0.5-0.2,0.5-0.5
				c0-0.3-0.2-0.5-0.5-0.5C110.4,435.7,110.1,435.9,110.2,436.2z M110.2,438c0,0.3,0.2,0.5,0.5,0.5s0.5-0.2,0.5-0.5
				c0-0.3-0.2-0.5-0.5-0.5C110.4,437.5,110.1,437.8,110.2,438z M110.2,439.9c0,0.3,0.2,0.5,0.5,0.5s0.5-0.2,0.5-0.5
				c0-0.3-0.2-0.5-0.5-0.5C110.4,439.4,110.1,439.6,110.2,439.9z M108.3,436.2c0,0.3,0.2,0.5,0.5,0.5c0.3,0,0.5-0.2,0.5-0.5
				c0-0.3-0.2-0.5-0.5-0.5C108.5,435.7,108.2,435.9,108.3,436.2z M108.3,438c0,0.3,0.2,0.5,0.5,0.5c0.3,0,0.5-0.2,0.5-0.5
				c0-0.3-0.2-0.5-0.5-0.5C108.5,437.5,108.2,437.8,108.3,438z M108.3,439.9c0,0.3,0.2,0.5,0.5,0.5c0.3,0,0.5-0.2,0.5-0.5
				c0-0.3-0.2-0.5-0.5-0.5C108.5,439.4,108.2,439.6,108.3,439.9z M106.4,436.2c0,0.3,0.2,0.5,0.5,0.5c0.3,0,0.5-0.2,0.5-0.5
				c0-0.3-0.2-0.5-0.5-0.5C106.6,435.7,106.4,435.9,106.4,436.2z M106.4,438c0,0.3,0.2,0.5,0.5,0.5c0.3,0,0.5-0.2,0.5-0.5
				c0-0.3-0.2-0.5-0.5-0.5C106.6,437.5,106.4,437.8,106.4,438z M106.4,439.9c0,0.3,0.2,0.5,0.5,0.5c0.3,0,0.5-0.2,0.5-0.5
				c0-0.3-0.2-0.5-0.5-0.5C106.6,439.4,106.4,439.6,106.4,439.9z M104.5,436.2c0,0.3,0.2,0.5,0.5,0.5c0.3,0,0.5-0.2,0.5-0.5
				c0-0.3-0.2-0.5-0.5-0.5C104.7,435.7,104.5,435.9,104.5,436.2z M104.5,438c0,0.3,0.2,0.5,0.5,0.5c0.3,0,0.5-0.2,0.5-0.5
				c0-0.3-0.2-0.5-0.5-0.5C104.7,437.5,104.5,437.8,104.5,438z M104.5,439.9c0,0.3,0.2,0.5,0.5,0.5c0.3,0,0.5-0.2,0.5-0.5
				c0-0.3-0.2-0.5-0.5-0.5C104.7,439.4,104.5,439.6,104.5,439.9z M102.7,436.2c0,0.3,0.2,0.5,0.5,0.5c0.3,0,0.5-0.2,0.5-0.5
				c0-0.3-0.2-0.5-0.5-0.5C102.9,435.7,102.7,435.9,102.7,436.2z M102.7,438c0,0.3,0.2,0.5,0.5,0.5c0.3,0,0.5-0.2,0.5-0.5
				c0-0.3-0.2-0.5-0.5-0.5C102.9,437.5,102.7,437.8,102.7,438z M102.7,439.9c0,0.3,0.2,0.5,0.5,0.5c0.3,0,0.5-0.2,0.5-0.5
				c0-0.3-0.2-0.5-0.5-0.5C102.9,439.4,102.7,439.6,102.7,439.9z M100.8,436.2c0,0.3,0.2,0.5,0.5,0.5c0.3,0,0.5-0.2,0.5-0.5
				c0-0.3-0.2-0.5-0.5-0.5C101,435.7,100.8,435.9,100.8,436.2z M100.8,438c0,0.3,0.2,0.5,0.5,0.5c0.3,0,0.5-0.2,0.5-0.5
				c0-0.3-0.2-0.5-0.5-0.5C101,437.5,100.8,437.8,100.8,438z M100.8,439.9c0,0.3,0.2,0.5,0.5,0.5c0.3,0,0.5-0.2,0.5-0.5
				c0-0.3-0.2-0.5-0.5-0.5C101,439.4,100.8,439.6,100.8,439.9z M98.9,436.2c0,0.3,0.2,0.5,0.5,0.5s0.5-0.2,0.5-0.5
				c0-0.3-0.2-0.5-0.5-0.5S98.9,435.9,98.9,436.2z M98.9,438c0,0.3,0.2,0.5,0.5,0.5s0.5-0.2,0.5-0.5c0-0.3-0.2-0.5-0.5-0.5
				S98.9,437.8,98.9,438z M98.9,439.9c0,0.3,0.2,0.5,0.5,0.5s0.5-0.2,0.5-0.5c0-0.3-0.2-0.5-0.5-0.5S98.9,439.6,98.9,439.9z
				 M97.1,436.2c0,0.3,0.2,0.5,0.5,0.5c0.3,0,0.5-0.2,0.5-0.5c0-0.3-0.2-0.5-0.5-0.5C97.3,435.7,97.1,435.9,97.1,436.2z M97.1,438
				c0,0.3,0.2,0.5,0.5,0.5c0.3,0,0.5-0.2,0.5-0.5c0-0.3-0.2-0.5-0.5-0.5C97.3,437.5,97.1,437.8,97.1,438z M97.1,439.9
				c0,0.3,0.2,0.5,0.5,0.5c0.3,0,0.5-0.2,0.5-0.5c0-0.3-0.2-0.5-0.5-0.5C97.3,439.4,97.1,439.6,97.1,439.9z M95.2,436.2
				c0,0.3,0.2,0.5,0.5,0.5s0.5-0.2,0.5-0.5c0-0.3-0.2-0.5-0.5-0.5S95.2,435.9,95.2,436.2z M95.2,438c0,0.3,0.2,0.5,0.5,0.5
				s0.5-0.2,0.5-0.5c0-0.3-0.2-0.5-0.5-0.5S95.2,437.8,95.2,438z M95.2,439.9c0,0.3,0.2,0.5,0.5,0.5s0.5-0.2,0.5-0.5
				c0-0.3-0.2-0.5-0.5-0.5S95.2,439.6,95.2,439.9z M93.4,436.2c0,0.3,0.2,0.5,0.5,0.5c0.3,0,0.5-0.2,0.5-0.5c0-0.3-0.2-0.5-0.5-0.5
				C93.6,435.7,93.4,435.9,93.4,436.2z M93.4,438c0,0.3,0.2,0.5,0.5,0.5c0.3,0,0.5-0.2,0.5-0.5c0-0.3-0.2-0.5-0.5-0.5
				C93.6,437.5,93.4,437.8,93.4,438z M93.4,439.9c0,0.3,0.2,0.5,0.5,0.5c0.3,0,0.5-0.2,0.5-0.5c0-0.3-0.2-0.5-0.5-0.5
				C93.6,439.4,93.4,439.6,93.4,439.9z M91.5,436.2c0,0.3,0.2,0.5,0.5,0.5s0.5-0.2,0.5-0.5c0-0.3-0.2-0.5-0.5-0.5
				S91.4,435.9,91.5,436.2z M91.5,438c0,0.3,0.2,0.5,0.5,0.5s0.5-0.2,0.5-0.5c0-0.3-0.2-0.5-0.5-0.5S91.4,437.8,91.5,438z
				 M91.5,439.9c0,0.3,0.2,0.5,0.5,0.5s0.5-0.2,0.5-0.5c0-0.3-0.2-0.5-0.5-0.5S91.4,439.6,91.5,439.9z M89.6,436.2
				c0,0.3,0.2,0.5,0.5,0.5c0.3,0,0.5-0.2,0.5-0.5c0-0.3-0.2-0.5-0.5-0.5C89.9,435.7,89.6,435.9,89.6,436.2z M89.6,438
				c0,0.3,0.2,0.5,0.5,0.5c0.3,0,0.5-0.2,0.5-0.5c0-0.3-0.2-0.5-0.5-0.5C89.9,437.5,89.6,437.8,89.6,438z M89.6,439.9
				c0,0.3,0.2,0.5,0.5,0.5c0.3,0,0.5-0.2,0.5-0.5c0-0.3-0.2-0.5-0.5-0.5C89.9,439.4,89.6,439.6,89.6,439.9z M87.7,436.2
				c0,0.3,0.2,0.5,0.5,0.5c0.3,0,0.5-0.2,0.5-0.5c0-0.3-0.2-0.5-0.5-0.5C88,435.7,87.7,435.9,87.7,436.2z M87.7,438
				c0,0.3,0.2,0.5,0.5,0.5c0.3,0,0.5-0.2,0.5-0.5c0-0.3-0.2-0.5-0.5-0.5C88,437.5,87.7,437.8,87.7,438z M87.7,439.9
				c0,0.3,0.2,0.5,0.5,0.5c0.3,0,0.5-0.2,0.5-0.5c0-0.3-0.2-0.5-0.5-0.5C88,439.4,87.7,439.6,87.7,439.9z M86.9,436.2
				c0-0.3-0.2-0.5-0.5-0.5s-0.5,0.2-0.5,0.5s0.2,0.5,0.5,0.5S86.9,436.5,86.9,436.2z M85.8,438c0,0.3,0.2,0.5,0.5,0.5
				s0.5-0.2,0.5-0.5c0-0.3-0.2-0.5-0.5-0.5C86.1,437.5,85.8,437.8,85.8,438z M85.8,439.9c0,0.3,0.2,0.5,0.5,0.5s0.5-0.2,0.5-0.5
				c0-0.3-0.2-0.5-0.5-0.5C86.1,439.4,85.8,439.6,85.8,439.9z M122,308.1"/>
		</g>
	</g>
	<g>
		<defs>
			<path id="SVGID_5_" d="M89.5,445.4c0.1,0.2,0.3,0.3,0.4,0.5c8.6,11.2,16.3,12.4,23.3,12.5l-0.2,46.8l57.8-0.9l0.2-63.6
				c5.7-3.8,11.1-10.9,11.1-16.3V392c0,0-8.3-17.5-10.1-34.9l-1.7-17.8c-3.1-2.6-12.4-1.1-14.6,0.6c-2.1,5.1-3.8,16.3-2.6,21.9
				c1.2,5.5,2.7,29.3,2.7,29.3c-0.9,0.9-1.6,1.9-2.3,3"/>
		</defs>
		<clipPath id="SVGID_6_">
			<use xlink:href="#SVGID_5_"  overflow="visible"/>
		</clipPath>
		<path clip-path="url(#SVGID_6_)" fill="#FFFFFF" d="M143.9,375.4c0,0.1-59.9,8.1-59.4,11.5c2,15.7,7.1,59.2,7.3,59.4
			c8.3,9.8,15.8,10.8,22.5,11v46.2h55v-63.8c5.7-3.6,11.2-10.6,11.2-15.7v-31.5c0,0-8.4-17-10.2-33.8l-1.7-17.2
			c-3.1-2.5-9.2-1.9-11.4-0.2c-2.1,4.9-3.8,15.8-2.6,21.2c1.2,5.3,2.7,28.4,2.7,28.4c-1.9,1.9-3.2,4.6-4.2,7.3 M202.3,290.1
			l45.4,231.7l-326,7.2"/>
	</g>
	<g>
		<defs>
			<path id="SVGID_7_" d="M68.2,361.5l-1.6-0.7L58,357c-4.1-1.7-5.1-6.5-3.3-10.9c1.9-4.4,6.1-6.3,10.2-4.6l2.6,1.2"/>
		</defs>
		<clipPath id="SVGID_8_">
			<use xlink:href="#SVGID_7_"  overflow="visible"/>
		</clipPath>
		<path clip-path="url(#SVGID_8_)" fill="#FFFFFF" d="M134.9,470.4H-4V271.7h138.9V470.4z M67,342.8l-1.6-0.7
			c-3.9-1.6-8.5,0.3-10.3,4.4c-1.8,4.2-0.1,8.9,3.9,10.5l8.1,3.6 M77.2,376.3c1.8-4.2,0.1-8.9-3.9-10.5l-8.1-3.6
			c-3.9-1.6-8.5,0.3-10.3,4.4c-1.8,4.2-0.1,8.9,3.9,10.5l8.1,3.6C70.8,382.5,75.4,380.5,77.2,376.3z M76.6,395.9
			c1.8-4.2,0.1-8.9-3.9-10.5l-8.1-3.6c-3.9-1.6-8.5,0.3-10.3,4.4c-1.8,4.2-0.1,8.9,3.9,10.5l8.1,3.6
			C70.1,402.1,74.8,400.1,76.6,395.9z"/>
	</g>
	<path fill="none" d="M68,381.6c-0.3-0.1-0.7-0.2-1-0.4l-3.7-1.7l-4.7-2.1c-4.1-1.7-5.9-6.7-4.1-11s6.7-6.4,10.8-4.7l8.5,3.8"/>
	<g>
		<defs>
			<path id="SVGID_9_" d="M68.3,383.1l-3.6-1.7c-4.2-1.8-9,0.2-10.7,4.4c-1.8,4.3-1.1,9.1,3.1,10.9l9.5,4.2c0.4,0.2,0.8,0.3,1.1,0.4
				"/>
		</defs>
		<clipPath id="SVGID_10_">
			<use xlink:href="#SVGID_9_"  overflow="visible"/>
		</clipPath>
		<path clip-path="url(#SVGID_10_)" fill="#FFFFFF" d="M134.9,470.4H-4V271.7h138.9V470.4z M77.3,356.2c1.8-4.2,0.1-8.9-3.9-10.5
			l-8.1-3.6c-3.9-1.6-8.5,0.3-10.3,4.4c-1.8,4.2-0.1,8.9,3.9,10.5l8.1,3.6C70.9,362.3,75.6,360.3,77.3,356.2z M77.2,376.3
			c1.8-4.2,0.1-8.9-3.9-10.5l-8.1-3.6c-3.9-1.6-8.5,0.3-10.3,4.4c-1.8,4.2-0.1,8.9,3.9,10.5l8.1,3.6
			C70.8,382.5,75.4,380.5,77.2,376.3z M76.6,395.9c1.8-4.2,0.1-8.9-3.9-10.5l-4.2-1.9l-0.4-0.2l-3.5-1.5c-3.9-1.6-8.5,0.3-10.3,4.4
			c-1.8,4.2-0.1,8.9,3.9,10.5l8.1,3.6c0.5,0.2,1,0.4,1.5,0.5C71.3,401.5,75,399.5,76.6,395.9z"/>
	</g>
	<g>
		<defs>
			<path id="SVGID_11_" d="M67.8,382.2c-0.5-0.1-1.1-0.3-1.6-0.5l-8.5-3.8c-4.1-1.7-5.9-6.7-4.1-11s6.7-6.4,10.8-4.7l3.8,1.7"/>
		</defs>
		<clipPath id="SVGID_12_">
			<use xlink:href="#SVGID_11_"  overflow="visible"/>
		</clipPath>
		<path clip-path="url(#SVGID_12_)" fill="#FFFFFF" d="M134.2,470.8H-4.7V272.1h138.9V470.8z M76.6,356.6c1.8-4.2,0.1-8.9-3.9-10.5
			l-8.1-3.6c-3.9-1.6-8.5,0.3-10.3,4.4s-0.1,8.9,3.9,10.5l8.1,3.6C70.2,362.8,74.9,360.8,76.6,356.6z M68.3,364.4l-3.8-1.7
			c-3.9-1.6-8.5,0.3-10.3,4.4c-1.8,4.2-0.1,8.9,3.9,10.5l8.1,3.6 M75.9,396.4c1.8-4.2,0.1-8.9-3.9-10.5l-8.1-3.6
			c-3.9-1.6-8.5,0.3-10.3,4.4c-1.8,4.2-0.1,8.9,3.9,10.5l8.1,3.6C69.4,402.5,74.1,400.5,75.9,396.4z"/>
	</g>
	<path fill="none" stroke="#FFFFFF" stroke-miterlimit="10" d="M66.7,337.9c-1.3-0.1-2.5-0.5-3.6-1.3l-11.9-8.1
		c-3.5-2.4-4.3-7.4-1.8-11.1c2.5-3.7,7.4-4.8,10.9-2.4l6.5,4.4"/>
	<path fill="#3E253C" d="M-8,507"/>
</g>
</svg>
