<?xml version="1.0" encoding="utf-8"?>
<!-- Generator: Adobe Illustrator 18.1.0, SVG Export Plug-In . SVG Version: 6.00 Build 0)  -->
<svg version="1.1" id="Layer_1" xmlns="http://www.w3.org/2000/svg" xmlns:xlink="http://www.w3.org/1999/xlink" x="0px" y="0px"
	 viewBox="-95 234 420 325" enable-background="new -95 234 420 325" xml:space="preserve">
<g id="APP_DESIGN">
</g>
<g id="ECOMMERCE">
</g>
<g id="APP_DESIGN_1_">
</g>
<g id="ECOMMERCE_1_">
</g>
<g>
	<path fill="#FFFFFF" d="M113,446.5L41.5,423c-3.3,0-19.5-23.2-19.5-26.5l8.5-12.5c0-3.3,10.2-21.5,13.5-21.5l69-31V234H-95v325h208
		"/>
	<path fill="#FFFFFF" d="M135.5,334.5l69,60.1c3.3,0-27.5,29.6-27.5,32.9l-5.5-0.5c0,3.3-19.2,16-22.5,16l-32,1v115h208V234H117
		v95.5"/>
</g>
<g transform="translate(0, 0)">
	<path fill="#DE519B" d="M115,327.6C50.5,327.6,9.3,389,7.7,391.5c-1,1.5-1,4.1,0,5.7c1.5,3.1,43.3,64.5,107.3,64.5
		c63.4,0,105.7-61.4,107.3-63.9c1-1.5,1-4.1,0-5.7C220.7,389,178.9,327.6,115,327.6z M156.3,379.2c0,22.7-18.6,41.3-41.3,41.3
		s-41.3-18.6-41.3-41.3c0-21.1,16-38.7,37.1-41.3c1.5,0,3.1,0,4.1,0c1.5,0,3.1,0,4.1,0C140.3,340.5,156.3,358,156.3,379.2z"/>
</g>
<path opacity="3.000000e-02" fill="none" stroke="#FFFFFF" stroke-width="4" stroke-miterlimit="10" d="M7,394.6c0,0,42.7-67,108-67
	c64.8,0,108,67,108,67s-43.8,67-108,67C50.2,461.7,7,394.6,7,394.6z"/>
<path fill="#3E253C" d="M237,507"/>
<path fill="#3E253C" d="M-8,507"/>
</svg>
