<?xml version="1.0" encoding="utf-8"?>
<!-- Generator: Adobe Illustrator 18.1.0, SVG Export Plug-In . SVG Version: 6.00 Build 0)  -->
<svg version="1.1" id="Layer_1" xmlns="http://www.w3.org/2000/svg" xmlns:xlink="http://www.w3.org/1999/xlink" x="0px" y="0px"
	 viewBox="0 130.2 624.5 483.1" enable-background="new 0 130.2 624.5 483.1" xml:space="preserve">
<g id="WEB_DESIGN">
</g>
<g id="ECOMMERCE">
</g>
<path fill="none" d="M288.6,168.7c-0.9-9-2.8-17.8-6-26.4C283.8,151.3,285.7,160.2,288.6,168.7z"/>
<rect x="237.3" y="319.9" fill="none" width="139.4" height="111.9"/>
<rect y="581.1" fill="#FFFFFF" width="624.5" height="32.3"/>
<polygon fill="#FFFFFF" points="246.5,608.9 0,609.1 0,128 247.5,128 217,346.5 "/>
<polygon fill="#FFFFFF" points="365.5,609.1 624.5,609.1 624.5,128 364.8,128 234,128 368.3,153.3 394.8,345.2 "/>
<rect y="130.3" fill="#FFFFFF" width="624.5" height="17.1"/>
<path d="M223.2,266.7V159.9c0-14.9,12.1-27,27-27h113.8c14.9,0,27,12.1,27,27V264 M295.9,195.9c-0.3-0.1-0.4-0.4-0.7-0.6
	c-2.3-1.9-5-3.4-8-4.4c-3.2-1-6.6-1.6-10.1-1.6s-6.8,0.6-10.1,1.6c-3.1,1-5.7,2.5-8,4.4c-2.9,2.3-5.1,5.2-6.1,8.3
	c-0.6,1.6-0.9,3.2-0.9,4.8c0,0.7,0,1.5,0.1,2.2c0.1,1.2,0.4,2.2,0.9,3.4c0.9,2,2.2,4.1,3.9,5.8c0.6,0.6,1.3,1.2,1.9,1.7
	c2.3,1.9,5,3.4,8,4.4c3.2,1,6.6,1.6,10.1,1.6c2.6,0,5.4-0.3,7.9-1c0,0,3.2-0.7,5.8-2c2.8-1.5,5.1-3.5,5.5-3.8
	c1.6-1.5,2.9-3.1,3.9-4.7c-3.1-4.4-4.8-9.5-4.8-14.9c0-0.9,0.3-2.2,0.4-3.1C295.9,197.3,295.7,196.7,295.9,195.9z M305.9,213.9
	c0.9,1,1.9,2.2,2.9,3.1c0.4,0.4,3.5,3.1,7.1,4.8c3.5,1.7,7.6,2.6,7.6,2.6c3.2,0.9,6.7,1.3,10.2,1.3c4.5,0,8.9-0.7,13.1-2
	c3.9-1.3,7.4-3.2,10.5-5.5c0.9-0.7,1.7-1.5,2.5-2.3c2.3-2.3,3.9-4.8,5.1-7.6c0.6-1.5,1-2.8,1.2-4.2c0.1-0.9,0.1-1.9,0.1-2.8
	c0-2.2-0.4-4.2-1-6.3c-1.5-3.9-4.1-7.7-8-10.8c-3.1-2.3-6.6-4.2-10.5-5.5c-4.1-1.5-8.6-2-13.1-2s-8.9,0.7-13.1,2
	c-3.9,1.3-7.4,3.2-10.5,5.5c-4.1,3.2-6.8,7.1-8.2,11.5c3.1,3.6,4.7,8,4.7,12.8C306.7,210.4,306.4,212.2,305.9,213.9z M302,195.7
	c-1.3-1.6-2.9-3.1-4.7-4.4c-5.2-3.9-12.4-6.4-20.3-6.4c-12.8,0-23.9,6.6-28,15.6c-0.7,1.5-1.2,3.1-1.5,4.5c-0.1,1.2-0.3,2.2-0.3,3.4
	c0,4.5,1.6,8.7,4.4,12.2c0.9,1.2,2,2.3,3.2,3.5c5.4,4.8,13.4,7.9,22.1,7.9c3.1,0,6.1-0.4,8.9-1.2l-10.1,16.3c0,0,8.3-8.3,14.9-15
	c4.2-4.2,7.7-7.7,8.3-8.2c1.5-1.3,2.8-2.8,3.9-4.4c-1.2-1.2-2.2-2.3-3.1-3.6c-1,1.7-2.3,3.4-3.9,4.7c-0.3,0.3-2.6,2.3-5.5,3.8
	c-2.6,1.3-5.8,2-5.8,2c-2.5,0.6-5.1,1-7.9,1c-3.5,0-6.8-0.6-10.1-1.6c-3.1-1-5.7-2.5-8-4.4c-0.7-0.6-1.3-1.2-1.9-1.7
	c-1.7-1.7-3.1-3.8-3.9-5.8c-0.4-1-0.7-2.2-0.9-3.4c-0.1-0.7-0.1-1.5-0.1-2.2c0-1.6,0.3-3.2,0.9-4.8c1-3.1,3.2-6,6.1-8.3
	c2.3-1.9,5-3.4,8-4.4c3.2-1,6.6-1.6,10.1-1.6c3.5,0,6.8,0.6,10.1,1.6c3.1,1,5.7,2.5,8,4.4c0.3,0.1,0.4,0.4,0.7,0.6
	c2.6,2.2,4.4,4.8,5.4,7.6c0.4,1.2,0.7,2.5,0.9,3.6c0.3,0.9,0.6,1.7,1,2.5c0.7,1.5,1.6,2.9,2.8,4.4c0.6-1.7,0.9-3.6,0.9-5.5
	C306.7,203.7,305.1,199.3,302,195.7z M295.3,201.2c0,0.4,0,0.9,0,1.3c0.3,5,1.9,9.5,4.8,13.6c0.9,1.3,1.9,2.5,3.1,3.6
	c0.6,0.6,1.2,1.2,1.9,1.7c1.9,1.7,29.1,30.2,29.1,30.2l-11.9-21.4c3.6,0.9,7.6,1.5,11.7,1.5c11.4,0,21.6-3.9,28.7-10.2
	c1.6-1.3,2.9-2.9,4.2-4.5c3.5-4.7,5.5-10.1,5.5-15.9c0-1.5-0.1-2.9-0.4-4.4c-0.4-2-1-4.1-1.9-6c-5.2-11.8-19.5-20.3-36.1-20.3
	c-16.8,0-31.2,8.6-36.3,20.5c1.7,1.3,3.4,2.8,4.7,4.4c1.3-4.2,4.1-8.2,8.2-11.5c3.1-2.3,6.6-4.2,10.5-5.5c4.1-1.5,8.6-2,13.1-2
	s8.9,0.7,13.1,2c3.9,1.3,7.4,3.2,10.5,5.5c3.8,3.1,6.6,6.7,8,10.8c0.7,2,1,4.1,1,6.3c0,1-0.1,1.9-0.1,2.8c-0.3,1.5-0.6,2.9-1.2,4.2
	c-1,2.8-2.8,5.2-5.1,7.6c-0.7,0.7-1.6,1.6-2.5,2.3c-3.1,2.3-6.6,4.2-10.5,5.5c-4.1,1.5-8.6,2-13.1,2c-3.5,0-6.8-0.4-10.2-1.3
	c0,0-4.1-0.9-7.6-2.6c-3.6-1.7-6.7-4.5-7.1-4.8c-1.2-1-2-2-2.9-3.1c-1.2-1.3-2-2.8-2.8-4.4c-0.4-0.9-0.7-1.6-1-2.5
	c-0.4-1.2-0.7-2.5-0.9-3.6c-1-2.8-2.9-5.4-5.4-7.6"/>
<path d="M390.7,254.6v327.6c0,14.9-12.1,27-27,27H250c-14.9,0-27-12.1-27-27V257.2 M376.6,309.5H237.3v111.9h139.4V309.5H376.6z"/>
<path d="M406.6,293.5v146c0,14.7-11.9,26.7-26.7,26.7h-146c-14.7,0-26.7-11.9-26.7-26.7v-146c0-14.7,11.9-26.7,26.7-26.7h146
	C394.7,266.7,406.6,278.6,406.6,293.5z M376.6,310.4H237.3v111.9h139.4V310.4H376.6z"/>
<path fill="#FFFFFF" d="M383.2,321.7v89.3c0,17.3-14.1,31.5-31.5,31.5h-89.5c-17.3,0-31.5-14.1-31.5-31.5v-89.5
	c0-17.3,14.1-31.5,31.5-31.5h89.5C369,290.3,383.2,304.3,383.2,321.7z M365.2,313.8H247.9c-6.1,0-10.5,1.6-10.5,7.7v84.7
	c0,6.1,4.4,10.9,10.3,11.1l117.6,1.2c6.1,0,11.2-5,11.2-11.1l-0.3-86C376.3,315.3,371.4,313.8,365.2,313.8z"/>
<path fill="#FFFFFF" d="M355.2,318.1h-25.5v25.5h25.5V318.1z M351.4,339.8h-17.9V322h17.9V339.8z M347.7,336.2H337v-10.6h10.8V336.2
	z M284.1,318.1h-25.5v25.5h25.5V318.1z M280.3,339.8h-17.9V322h17.9V339.8L280.3,339.8z M276.6,336.2h-10.8v-10.6h10.8V336.2z
	 M258.6,414.6h25.5v-25.5h-25.5V414.6z M262.4,392.9h17.9v17.8h-17.9V392.9z M266,396.5h10.8v10.6H266V396.5z M324.3,385.6h-3.9
	v-3.9h3.9V385.6z M351.2,355.7v-3.9h3.9v3.9H351.2z M351.2,347.8v3.9h-3.9v-3.9H351.2z M343.2,351.8h3.9v3.9l0,0v3.9h0.1h0.1h3.6
	h0.1h3.8v3.9h-3.8h-0.1h-3.6h-0.1h-3.8h-3.9v-3.9h3.6v-3.9h-3.9v3.9h-3.9v-3.9h3.9v-3.9h-3.6v-3.9h3.9v3.9H343.2z M324,355.7h0.1
	h3.6v-3.9h3.9v3.9h-3.9v3.9v3.8h3.8v3.8v0.1v3.8h-3.9v-3.8v0v-3.6H324h-0.1h-3.8v-3.9v-4.1H324z M316.3,363.7h3.9v3.9h-3.9V363.7z
	 M355.3,371.7v3.9h-3.9v-3.9H355.3z M351.4,383.7h3.9v3.9h-3.9V383.7z M351.4,391.5h3.9v3.8v0.1v3.8h-3.6l0,0h-3.9v-3.8h-3.4v3.8
	h-3.9v-3.9h3.8v-3.8h-3.8v-3.9v-3.9h3.9v-3.9h3.9v3.9h-3.9v3.9v3.9h3.8v3.9h3.2l0,0V391.5z M340.5,371.7h3.9v3.9v3.8h-3.9v-3.9l0,0
	V371.7z M344.4,367.8h3.9v3.9h-3.9V367.8z M336.2,367.6h3.9v3.9h-3.9V367.6z M333.9,375.7h-3.8h-6v-3.9h-3.9v3.9h-6v15.9h9.8v3.9
	h-3.8v3.9h3.8h0.1h3.8v-3.8v-0.1v-3.9h2.2v-11.8h3.8V375.7z M327.1,388.3h-9.5v-9.5h9.5V388.3z M338.1,383.7h-3.9v-3.9h3.9V383.7z
	 M334.2,391.5h3.9v3.9h-3.9V391.5z M320.1,401.7h3.9v3.9h-3.9V401.7z M347.7,405.8h-3.9v-3.9h3.9V405.8z M351.4,406.7h3.9v3.9h-3.9
	v3.9h-3.9v-3.9h3.9V406.7z M335.5,406.7h3.9v3.9h-3.9v3.9h-3.9v-3.9v-3.9H335.5z M320.2,410.8h3.8v3.9h-3.8h-0.1h-3.8l0,0h-3.9v-3.9
	h-3.8v-4.1h3.8h0.1h3.8v3.9h3.8h0.1V410.8z M312.3,397.8h3.9v3.9h-3.9V397.8z M301.4,410.8h3.9v3.9h-3.9V410.8z M286.7,410.8h3.9
	v3.9h-3.9V410.8z M266.3,375.7h-3.8v-3.8v-0.1h-3.8v-3.8v-0.1V364h3.9v3.8v0.1h3.8v3.8v0.1l0,0h3.8h0.3v-3.8h3.9l0,0v-0.1v-3.6v-0.1
	v-3.8h3.9v3.8v0.1v3.6v0.1v3.8h-3.9v0.1h-0.1v3.6v0.1v3.8l0,0v3.9h-3.9h-3.9v-3.9l0,0v-3.8v-0.1H266.3z M282.6,371.7v3.9h-3.9v-3.9
	H282.6z M290.6,375.7h-3.9v-3.9h3.9V375.7z M282.6,379.6v-3.9h3.9v3.9H282.6v3.9h-3.9v-3.9H282.6z M290.6,398h-3.9V394h3.6v-3.9l0,0
	v-3.9h3.9v3.9l0,0v3.9h-3.6V398z M302.4,401.7h-3.9v3.9h-3.8h-0.1h-3.6h-0.3H287v-3.9h3.6h0.3h3.5v-3.9h3.9v-3.9h3.9v3.9v0.1v3.8
	H302.4z M309.4,398h-3.9V394h3.9V398z M309.4,386.9h-3.9v-3.8v-0.1V379h3.9v3.8v0.1V386.9z M305.1,375.7h-3.6v3.6h-3.9v-3.6v-0.4
	v-3.5h3.8h0.1h3.6v-3.8h-3.8V364h3.8h0.1h3.8v3.8v0.1v3.8v3.9h-3.8H305.1z M297.5,371.6h-3.9v-3.8v-0.1v-3.8h3.9v3.8v0.1V371.6z
	 M298.4,385.6h3.9v3.9h-3.9V385.6z M274.5,351.8h-3.9v-3.9h3.9V351.8h3.9v3.9h-3.9V351.8z M262.5,355.7v-3.9h3.9h4.1v3.9h-3.9v3.9
	v3.9h-3.9v-3.9v-3.9H262.5z M262.5,351.8h-3.9v-3.9h3.9V351.8z M262.5,379.7h-3.9v-3.9h3.9V379.7z M316.3,322h-3.9v-3.9h3.9l0,0h3.8
	h0.1h3.8v3.9h-3.8h-0.1H316.3L316.3,322z M296.5,322h-4.1v-3.9h3.9v3.9H296.5z M292.4,326.1h-3.9v-3.9h3.9V326.1z M292.4,337.9h-3.9
	v-4.1h3.9V337.9z M288.7,363.7h-3.9v-3.9v-4.1h3.6v-3.9h-3.6v-3.9h3.6v-3.9h3.9v3.9h-3.6v3.9h3.6v3.9h-3.6v3.9V363.7z M313.5,329.9
	h-3.9V326h3.9V329.9z M301.4,326.1h-3.9v-3.9h3.9v-3.9h3.9v3.9v3.8v0.1v3.8h-3.9V326.1z M305.5,333.8v-3.9h3.9v3.9H305.5z
	 M305.5,337.9v3.8h3.9v3.9h-3.9v-3.9h-3.9v-3.9v-0.1v-3.8h3.9V337.9L305.5,337.9z M294.3,337.9h3.9v3.9h-3.9V337.9z M309.4,363.7
	v-3.9h3.9v3.9H309.4z M301.4,351.8v0.1h3.8v3.9h-3.8v3.8h-3.9v-3.9l0,0v-3.8v-0.1V348h3.9V351.8z M309.4,355.7v3.9h-3.9v-3.9H309.4
	v-3.9h3.9v-3.9h3.9v3.9l0,0v3.9h-3.9H309.4z M320.2,329.9v3.9h3.8v3.9h-3.9v-3.9h-3.8v3.9h-3.9v-3.9h3.9v-3.9h3.8V326h3.9v3.9H320.2
	z M320.1,343.8h3.9v3.9v3.9h-3.9v-3.9V343.8z"/>
<path fill="none" stroke="#FFFFFF" stroke-miterlimit="10" d="M302,195.4c-1.3-1.6-2.9-3.1-4.7-4.4c-5.2-3.9-12.4-6.4-20.3-6.4
	c-12.8,0-23.8,6.6-27.8,15.6c-0.7,1.5-1.2,3.1-1.5,4.5c-0.1,1-0.3,2.2-0.3,3.4c0,4.5,1.6,8.6,4.2,12.2c0.9,1.2,2,2.3,3.2,3.5
	c5.4,4.8,13.3,7.9,22.1,7.9c3.1,0,6.1-0.4,8.9-1L275.9,247c0,0,8.2-8.3,14.9-14.9c4.2-4.2,7.7-7.7,8.3-8.2c1.5-1.3,2.8-2.8,3.9-4.4
	c-1.2-1.2-2.2-2.3-3.1-3.6c-1,1.7-2.3,3.2-3.9,4.7c-0.3,0.3-2.6,2.3-5.4,3.8c-2.6,1.3-5.8,2-5.8,2c-2.5,0.6-5.1,1-7.9,1
	c-3.5,0-6.8-0.6-10.1-1.6c-3.1-1-5.7-2.5-8-4.2c-0.7-0.6-1.3-1.2-1.9-1.7c-1.7-1.7-3.1-3.8-3.9-5.8c-0.4-1-0.7-2.2-0.9-3.4
	c-0.1-0.7-0.1-1.5-0.1-2.2c0-1.6,0.3-3.2,0.9-4.8c1-3.1,3.2-6,6.1-8.3c2.3-1.9,5-3.2,8-4.2c3.2-1,6.6-1.6,10.1-1.6
	c3.5,0,6.8,0.6,10.1,1.6c3.1,1,5.7,2.5,8,4.2c0.3,0.1,0.4,0.4,0.7,0.6c2.6,2.2,4.4,4.8,5.4,7.6c0.4,1.2,0.7,2.5,0.9,3.6
	c0.3,0.9,0.6,1.7,1,2.5c0.7,1.5,1.6,2.9,2.8,4.2c0.6-1.7,0.9-3.6,0.9-5.5C306.7,203.4,304.9,199,302,195.4z"/>
<path fill="none" stroke="#FFFFFF" stroke-miterlimit="10" d="M372,196.7c-0.4-2.1-1-4-1.8-5.9c-5.3-11.8-19.5-20.3-36.2-20.3
	c-16.8,0-31.2,8.6-36.3,20.6c1.8,1.3,3.3,2.8,4.6,4.4c1.3-4.3,4.1-8.2,8.2-11.5c3-2.4,6.5-4.3,10.4-5.6c4.1-1.4,8.5-2.1,13.1-2.1
	c4.5,0,9,0.7,13.1,2.1c3.9,1.3,7.4,3.2,10.4,5.6c3.9,3.1,6.6,6.8,8,10.7c0.7,2,1.1,4.1,1.1,6.3c0,1-0.1,1.9-0.2,2.8
	c-0.2,1.5-0.6,2.9-1.2,4.3c-1.1,2.7-2.8,5.3-5.1,7.6c-0.8,0.8-1.6,1.6-2.5,2.3c-3,2.4-6.5,4.3-10.4,5.6c-4.1,1.4-8.5,2.1-13.1,2.1
	c-3.5,0-6.9-0.4-10.2-1.2c0,0-4.1-0.9-7.6-2.7c-3.6-1.8-6.7-4.5-7.1-4.8c-1.1-1-2.1-2-3-3.1c-1.1-1.4-2-2.8-2.8-4.3
	c-0.4-0.8-0.7-1.7-1-2.5c-0.4-1.2-0.7-2.4-0.8-3.7c-1-2.8-2.8-5.4-5.4-7.6c-0.4,1.7-0.6,3.5-0.6,5.3c0,5.4,1.7,10.4,4.8,14.8
	c0.9,1.3,1.9,2.5,3,3.7c0.6,0.6,1.2,1.2,1.8,1.8c1.9,1.7,29.2,30.2,29.2,30.2l-12-21.4c3.7,0.9,7.6,1.4,11.6,1.4
	c11.4,0,21.6-4,28.7-10.2c1.6-1.4,3-2.9,4.2-4.5c3.5-4.6,5.6-10,5.6-15.9C372.4,199.5,372.3,198.1,372,196.7z"/>
</svg>
