<svg id="logo" xmlns="http://www.w3.org/2000/svg" viewBox="0 0 500.88 94.63"><defs><style>.cls-1{fill:#5eb54d;}.cls-2{fill:#e05699;}.cls-3{fill:#fff;}</style></defs><title>hypedrive_logo</title><path class="cls-1" d="M130.69,64.62h-8.89V12.05h8.89Zm32.06,0h-8.89V40.11a3.63,3.63,0,0,0-.89-2.65,3.58,3.58,0,0,0-2.67-.91h-16V27.67h16A13.18,13.18,0,0,1,153,28a13.68,13.68,0,0,1,2.79.91,13,13,0,0,1,2.65,1.59,10.46,10.46,0,0,1,2.22,2.36,12.08,12.08,0,0,1,1.54,3.2,13.41,13.41,0,0,1,.58,4.1Z"/><path class="cls-1" d="M198.56,64.62h-16a14.25,14.25,0,0,1-4.08-.65,12.06,12.06,0,0,1-4.05-2.14A11.68,11.68,0,0,1,171.28,58a12.56,12.56,0,0,1-1.23-5.83V27.67h8.89V52.14a3.61,3.61,0,0,0,.92,2.67,3.71,3.71,0,0,0,2.73.92h16ZM211,68.17a13.59,13.59,0,0,1-.58,4.12,12,12,0,0,1-1.54,3.21,10.46,10.46,0,0,1-2.22,2.36A13,13,0,0,1,204,79.45a13.74,13.74,0,0,1-2.79.91,13.17,13.17,0,0,1-2.67.29h-16V71.76h16a3.54,3.54,0,0,0,2.67-.92,3.69,3.69,0,0,0,.89-2.67V27.67H211Z"/><path class="cls-1" d="M259.59,52.14a13.58,13.58,0,0,1-.58,4.12,12,12,0,0,1-1.54,3.21,10.46,10.46,0,0,1-2.22,2.36,13,13,0,0,1-2.65,1.59,13.68,13.68,0,0,1-2.79.91,13.17,13.17,0,0,1-2.67.29h-16V55.73h16a3.54,3.54,0,0,0,2.67-.92,3.69,3.69,0,0,0,.89-2.67v-12a3.68,3.68,0,0,0-.91-2.73,3.63,3.63,0,0,0-2.65-.89h-16a3.75,3.75,0,0,0-2.73.91,3.55,3.55,0,0,0-.92,2.65V76.17h-8.89V40.11a13.4,13.4,0,0,1,.58-4.1,11.75,11.75,0,0,1,1.56-3.2A10.78,10.78,0,0,1,223,30.46a13,13,0,0,1,2.65-1.59,13.59,13.59,0,0,1,2.8-.91,13.27,13.27,0,0,1,2.65-.29h16a13.43,13.43,0,0,1,4.1.58,12.08,12.08,0,0,1,3.2,1.54A10.47,10.47,0,0,1,256.8,32a13,13,0,0,1,1.59,2.65,13.71,13.71,0,0,1,.91,2.79,13.17,13.17,0,0,1,.29,2.67Z"/><path class="cls-1" d="M306.3,39.91a13.75,13.75,0,0,1-.65,4,11.91,11.91,0,0,1-2.1,4,11.73,11.73,0,0,1-3.79,3.06,12.11,12.11,0,0,1-5.69,1.23H278V43.7h16a3.56,3.56,0,0,0,2.8-1.11,4,4,0,0,0,1-2.75,3.48,3.48,0,0,0-1.11-2.73,3.89,3.89,0,0,0-2.68-1H278a3.56,3.56,0,0,0-2.8,1.11,4,4,0,0,0-1,2.75V52.38a3.52,3.52,0,0,0,1.11,2.77,4,4,0,0,0,2.75,1h16v8.48H278a13.72,13.72,0,0,1-4-.65,11.88,11.88,0,0,1-4-2.1A11.72,11.72,0,0,1,267,58.08a12.1,12.1,0,0,1-1.23-5.69V39.91a13.73,13.73,0,0,1,.65-4,11.89,11.89,0,0,1,2.1-4,11.72,11.72,0,0,1,3.79-3.06A12.1,12.1,0,0,1,278,27.67h16a13.75,13.75,0,0,1,4,.65,11.91,11.91,0,0,1,4,2.1,11.73,11.73,0,0,1,3.06,3.79A12.1,12.1,0,0,1,306.3,39.91Z"/><path class="cls-2" d="M352.19,52.14a13.58,13.58,0,0,1-.58,4.12,12,12,0,0,1-1.54,3.21,10.46,10.46,0,0,1-2.22,2.36,13,13,0,0,1-2.65,1.59,13.6,13.6,0,0,1-2.8.91,13.42,13.42,0,0,1-2.68.29h-16a13.4,13.4,0,0,1-4.1-.58,11.72,11.72,0,0,1-3.2-1.55A10.77,10.77,0,0,1,314,60.25a13,13,0,0,1-1.59-2.65,13.6,13.6,0,0,1-.91-2.8,13.24,13.24,0,0,1-.29-2.65v-12a12.33,12.33,0,0,1,1.25-5.79,11.79,11.79,0,0,1,7.16-6,14.26,14.26,0,0,1,4-.65h16v8.89h-16a3.7,3.7,0,0,0-2.7.91,3.55,3.55,0,0,0-.92,2.65v12a3.75,3.75,0,0,0,.91,2.73,3.55,3.55,0,0,0,2.65.92h16a3.59,3.59,0,0,0,2.7-.92,3.69,3.69,0,0,0,.89-2.67V12.05h8.89Z"/><path class="cls-2" d="M392.37,36.56h-20a3.75,3.75,0,0,0-2.73.91,3.55,3.55,0,0,0-.92,2.65V64.62h-8.89V40.11a13.4,13.4,0,0,1,.58-4.1,11.75,11.75,0,0,1,1.56-3.2,10.78,10.78,0,0,1,2.24-2.36,13,13,0,0,1,2.65-1.59,13.59,13.59,0,0,1,2.8-.91,13.27,13.27,0,0,1,2.65-.29h20.06Z"/><path class="cls-2" d="M406.61,20.08h-8.89v-8h8.89Zm0,44.54h-8.89V27.67h8.89Z"/><path class="cls-2" d="M458.58,27.67a92.55,92.55,0,0,1-3.52,9.23,66.32,66.32,0,0,1-4.63,8.67,53.58,53.58,0,0,1-5.84,7.62,37.51,37.51,0,0,1-7.14,6,34.72,34.72,0,0,1-8.51,4,32.9,32.9,0,0,1-10,1.45,4.47,4.47,0,0,1-1.74-.34,4.54,4.54,0,0,1-1.44-.94,4.25,4.25,0,0,1-1-1.4,4.36,4.36,0,0,1-.34-1.73V27.67h8.89V55.46a14.53,14.53,0,0,0,6.24-1.4,24.54,24.54,0,0,0,5.66-3.71,36.16,36.16,0,0,0,4.94-5.25,53.1,53.1,0,0,0,4.05-6,54.78,54.78,0,0,0,3-6.07,40.36,40.36,0,0,0,1.86-5.33Z"/><path class="cls-2" d="M500.88,39.91a13.75,13.75,0,0,1-.65,4,11.91,11.91,0,0,1-2.1,4,11.73,11.73,0,0,1-3.79,3.06,12.11,12.11,0,0,1-5.69,1.23h-16V43.7h16a3.56,3.56,0,0,0,2.8-1.11,4,4,0,0,0,1-2.75,3.48,3.48,0,0,0-1.11-2.73,3.89,3.89,0,0,0-2.68-1h-16a3.56,3.56,0,0,0-2.8,1.11,4,4,0,0,0-1,2.75V52.38a3.52,3.52,0,0,0,1.11,2.77,4,4,0,0,0,2.75,1h16v8.48h-16a13.72,13.72,0,0,1-4-.65,11.88,11.88,0,0,1-4-2.1,11.72,11.72,0,0,1-3.06-3.79,12.1,12.1,0,0,1-1.23-5.69V39.91a13.73,13.73,0,0,1,.65-4,11.89,11.89,0,0,1,2.1-4,11.72,11.72,0,0,1,3.79-3.06,12.1,12.1,0,0,1,5.69-1.23h16a13.75,13.75,0,0,1,4,.65,11.91,11.91,0,0,1,4,2.1,11.73,11.73,0,0,1,3.06,3.79A12.1,12.1,0,0,1,500.88,39.91Z"/><path class="cls-2" d="M4.18,66.79A47.33,47.33,0,0,1,47.31,0,47,47,0,0,1,66.78,4.18l-3.3,7.29a39.33,39.33,0,0,0-52,52Z"/><path class="cls-2" d="M47.31,94.63a47,47,0,0,1-19.47-4.18l3.29-7.29a39.33,39.33,0,0,0,52-52l7.29-3.3A47.33,47.33,0,0,1,47.31,94.63Z"/><path class="cls-3" d="M6.83,92.08A3,3,0,0,1,4.72,87l19.13-19L12.21,41.5a3,3,0,0,1,4.06-3.9L55.95,57,46.17,26.52a3,3,0,0,1,3.7-3.79L64.8,27.12,85.19,6.81a3,3,0,0,1,4.23,4.25L67.78,32.62a3,3,0,0,1-3,.75L53.61,30.08l10.2,31.79a3,3,0,0,1-4.17,3.61L21,46.59l9.15,20.78a3,3,0,0,1-.63,3.33L9,91.21A3,3,0,0,1,6.83,92.08Z"/></svg>