<?xml version="1.0" encoding="utf-8"?>
<!-- Generator: Adobe Illustrator 18.1.0, SVG Export Plug-In . SVG Version: 6.00 Build 0)  -->
<svg version="1.1" id="Layer_1" xmlns="http://www.w3.org/2000/svg" xmlns:xlink="http://www.w3.org/1999/xlink" x="0px" y="0px"
	 viewBox="-95 234 420 325" enable-background="new -95 234 420 325" xml:space="preserve">
<g id="WEB_DESIGN">
</g>
<g id="APP_DESIGN">
</g>
<g id="ECOMMERCE">
</g>
<path fill="#595959" d="M-1200.2-1123.9h70.2c4.7,0,7.8,4.1,7.8,8.9v144.9c0,4.7-3.2,7.5-7.9,7.5h-70.2c-4.7,0-8.6-2.8-8.6-7.5
	V-1115C-1208.9-1119.8-1204.9-1123.9-1200.2-1123.9z M-1132.6-1114.4c0.6,0,1.1-0.5,1.1-1.1c0-0.6-0.5-1.1-1.1-1.1s-1.1,0.5-1.1,1.1
	C-1133.7-1115-1133.2-1114.4-1132.6-1114.4z M-1135.8-1114.4c0.6,0,1.1-0.5,1.1-1.1c0-0.6-0.5-1.1-1.1-1.1c-0.6,0-1.1,0.5-1.1,1.1
	C-1136.9-1115-1136.5-1114.4-1135.8-1114.4z M-1198-1113.3c1.7,0,3-1.4,3-3c0-1.7-1.4-3-3-3c-1.7,0-3,1.4-3,3
	C-1201-1114.7-1199.6-1113.3-1198-1113.3z"/>
<circle fill="#FFFFFF" cx="115" cy="444" r="2"/>
<circle fill="#FFFFFF" cx="73" cy="459" r="2"/>
<circle fill="#FFFFFF" cx="157" cy="457" r="2"/>
<circle fill="#FFFFFF" cx="31" cy="467" r="2"/>
<path fill="#FFFFFF" d="M-14,501h258V397H-14V501z M199,416c3.3,0,6,2.7,6,6s-2.7,6-6,6s-6-2.7-6-6S195.7,416,199,416z M191.7,425.5
	l2.6,3.1l-30,25l-2.6-3.1L191.7,425.5z M157,451c3.3,0,6,2.7,6,6s-2.7,6-6,6s-6-2.7-6-6S153.7,451,157,451z M122.7,443.1l27,10
	l-1.4,3.8l-27-10L122.7,443.1z M115,438c3.3,0,6,2.7,6,6s-2.7,6-6,6s-6-2.7-6-6S111.7,438,115,438z M107.4,445.1l1.2,3.8l-28,9
	l-1.2-3.8L107.4,445.1z M73,453c3.3,0,6,2.7,6,6s-2.7,6-6,6s-6-2.7-6-6S69.7,453,73,453z M64.7,459l0.6,4l-26,4l-0.6-4L64.7,459z
	 M31,461c3.3,0,6,2.7,6,6s-2.7,6-6,6s-6-2.7-6-6S27.7,461,31,461z"/>
<circle fill="#FFFFFF" cx="199" cy="422" r="2"/>
<rect x="179" y="377" fill="#FFFFFF" width="56" height="6"/>
<polygon fill="#3E253C" points="127,328 127,326 127,326 "/>
<path fill="#FFFFFF" d="M-14,364h258v-11H-14V364z M10,356c1.1,0,2,0.9,2,2s-0.9,2-2,2s-2-0.9-2-2S8.9,356,10,356z M2,356
	c1.1,0,2,0.9,2,2s-0.9,2-2,2s-2-0.9-2-2S0.9,356,2,356z M-6,356c1.1,0,2,0.9,2,2s-0.9,2-2,2s-2-0.9-2-2S-7.1,356-6,356z"/>
<path fill="#FFFFFF" d="M252.2,336H-22.2c-1.5,0-2.8,1.2-2.8,2.7V501h7V349h266v152h7V338.7C255,337.2,253.7,336,252.2,336z"/>
<path fill="#FFFFFF" d="M-14,393h258v-25H-14V393z M175,373h64v14h-64V373z M1,370.5c5.5,0,10,4.5,10,10s-4.5,10-10,10
	s-10-4.5-10-10S-4.5,370.5,1,370.5z"/>
<path fill="#FFFFFF" d="M293,515c2.2,0,4-1.8,4-4v-6H-67v6c0,2.2,1.8,4,4,4h170v4H-63c-4.4,0-8-3.6-8-8v-10h42V338.7
	c0-3.6,3.1-6.7,6.8-6.7H108v-2h-5c-2.2,0-4-1.8-4-4v-6h14v-86H-95v325h208v-44H293z"/>
<path fill="#FFFFFF" d="M131,320v6c0,2.2-1.8,4-4,4h-5v2h130.2c3.7,0,6.8,3,6.8,6.7V501h42v10c0,4.4-3.6,8-8,8H117v40h208V234H117
	l0.1,86"/>
<path fill="#3E253C" d="M109.7,276.3"/>
<path fill="#FFFFFF" d="M1,386.5c3.3,0,6-2.7,6-6s-2.7-6-6-6s-6,2.7-6,6S-2.3,386.5,1,386.5z"/>
</svg>
